<?xml version="1.0" standalone="no"?>
<!DOCTYPE svg PUBLIC "-//W3C//DTD SVG 1.1//EN" "http://www.w3.org/Graphics/SVG/1.1/DTD/svg11.dtd" >
<svg xmlns="http://www.w3.org/2000/svg">
<metadata>Generated by IcoMoon</metadata>
<defs>
<font id="icomoon" horiz-adv-x="1024">
<font-face units-per-em="1024" ascent="960" descent="-64" />
<missing-glyph horiz-adv-x="1024" />
<glyph unicode="&#x20;" horiz-adv-x="512" d="" />
<glyph unicode="&#xe900;" glyph-name="ing" horiz-adv-x="2048" d="M0 921.76v-38.16l529.2-264.48 151.6 0.48-680.8 340.4v-38.24zM540.8 804c171.36-85.76 311.84-155.92 312.24-155.92 0.32-0.080 0.56 70.16 0.56 155.92v156l-624.4-0.080 311.6-155.92zM921.6 755.2v-204.8h-921.6v-204.8h921.6v-409.6h204.8v409.6h921.6v204.8h-921.6v409.6h-204.8v-204.8zM1194.4 804c0-85.76 0.24-156 0.64-155.92 0.32 0 140.8 70.16 312.16 155.92l311.6 155.92-624.4 0.080v-156zM1554.4 789.6l-340.4-170.32h152.8l680.8 340.64h-152.8l-340.4-170.32zM0 732v-113.6h226.4c124.56 0 226.4 0.16 226.4 0.4s-101.84 51.36-226.4 113.6l-226.4 113.2v-113.6zM1821.2 732.080l-226.4-113.28 226.32-0.24c124.48-0.080 226.48-0.080 226.64 0.080s0.16 51.28 0.080 113.52l-0.24 113.28-226.4-113.36zM0 164v-113.6l226.4 113.2c124.56 62.24 226.4 113.36 226.4 113.6s-101.84 0.4-226.4 0.4h-226.4v-113.6zM1595.2 277.2c0-0.24 101.92-51.36 226.4-113.6l226.4-113.2v227.2h-226.4c-124.48 0-226.4-0.16-226.4-0.4zM340.8 106.4l-340.4-170.32h152.8l680.8 340.64h-152.8l-340.4-170.32zM1367.28 276.48c0.16-0.16 153.44-76.88 340.56-170.4l340.16-170.080v76.4l-528.8 264.4h-76.16c-41.84 0-75.92-0.16-75.76-0.32zM540.8 92l-311.6-155.92 624.4-0.080v156c0 85.84-0.24 156-0.56 155.92-0.4 0-140.88-70.16-312.24-155.92zM1194.4 92v-156l624.4 0.080-311.6 155.92c-171.36 85.76-311.84 155.92-312.16 155.92-0.4 0.080-0.64-70.080-0.64-155.92z" />
<glyph unicode="&#xe901;" glyph-name="esp" horiz-adv-x="1536" d="M0 832v-128h1536v256h-1536v-128zM466.432 602.624c-3.072-2.048-5.12-4.864-4.352-5.888 0.512-1.28-1.792-1.792-5.12-1.28-6.144 0.512-8.704-2.304-4.096-5.12 1.024-0.768 1.536-4.352 0.768-7.936-0.768-5.12-2.56-6.4-9.216-6.4-10.24-0.256-29.44-8.704-28.928-13.312 0.512-4.352-4.352-5.888-5.376-1.536-0.768 2.304-0.256 2.304 1.536-0.256 2.048-2.56 2.56 0 2.048 9.472-0.512 7.168 0.256 12.544 1.28 11.776 1.28-0.768 3.584 1.024 5.12 3.84 2.048 2.816 4.864 4.352 7.168 3.584 3.328-1.28 3.584-0.768 1.024 1.792-2.56 2.816-4.352 2.56-9.472-1.024-7.936-5.12-12.8-13.312-9.216-15.616 1.536-0.768 1.536-3.84 0-7.424-3.328-9.216-0.512-16.896 6.656-16.896 3.84 0 6.144-1.536 6.144-3.84 0-4.352-4.096-5.12-6.4-1.28-0.768 1.536-3.584 2.56-5.888 2.304-3.328 0-3.072-0.512 1.28-2.304 3.072-1.28 6.4-3.84 7.68-5.632 1.024-1.792 4.864-5.632 8.448-8.448 5.888-4.608 6.144-4.864 2.56-0.256s-3.584 4.608 1.792 1.536c3.072-2.048 5.12-4.352 4.608-5.376-1.792-2.56 17.664-5.12 26.368-3.328 6.144 1.28 7.68 0.512 8.704-3.584 1.024-3.84 4.096-5.632 9.984-6.144 4.864-0.512 0-1.024-10.752-1.024-14.080 0-19.2 1.024-18.432 3.072 1.28 3.328-8.704 7.68-11.264 5.12-1.024-0.768-0.256-1.536 1.536-1.536s2.56-1.024 1.536-2.304c-0.768-1.28-0.256-3.072 1.28-4.096s2.048-2.56 1.28-3.84c-2.304-3.84 8.448-7.936 15.616-6.144 4.864 1.28 6.4 1.024 5.12-1.28-1.28-1.792-11.52-2.816-29.952-2.816h-27.904v-65.28l-31.232-0.256c-33.024 0-45.056-3.072-55.808-13.824-4.864-4.864-4.864-5.12 0-15.872 4.352-9.984 9.472-14.336 17.408-14.592 2.048-0.256 3.072 3.328 3.072 9.984 0 8.96 0.768 10.496 7.168 12.032 8.96 2.56 43.264 2.56 52.48 0l6.912-1.792v-52.736c0-57.088 1.28-63.488 14.336-75.776 4.096-3.84 12.544-9.216 18.944-12.032 10.752-4.608 13.056-4.864 28.16-1.792 15.36 3.328 16.896 3.072 23.296-1.536 8.192-6.144 29.44-6.656 39.936-1.024l7.168 3.84-9.472 0.256c-7.936 0-9.216 0.768-8.192 4.608 0.512 2.304-0.256 1.792-1.792-1.28-4.096-7.936-6.912-7.424-6.4 1.28 0 3.84-0.768 6.912-2.304 6.912-1.28 0-2.304-3.328-2.048-7.168 0.256-5.888-0.512-6.912-3.84-5.376-2.56 1.024-7.68 2.304-11.52 3.072l-7.424 1.024 8.448 8.704c6.144 6.4 8.96 7.936 10.752 5.376 1.28-2.048 1.792-1.28 0.768 2.048-0.768 2.816 0 7.68 1.792 10.752l3.328 5.888 2.816-7.68c2.56-6.4 2.304-7.68-1.28-7.68-4.608 0-2.56-2.816 2.56-3.584 1.792-0.256 7.936-3.84 13.312-7.936 13.824-10.496 36.864-15.104 49.664-9.728 15.104 6.144 26.368 15.872 31.488 27.392 4.096 9.216 4.864 17.152 4.864 62.208v51.712l9.728 2.56c12.032 3.584 32.512 3.584 44.8 0 8.96-2.304 9.472-3.072 9.472-12.544 0-7.68 1.024-10.24 4.096-10.24 7.424 0 12.8 4.864 17.664 15.104 5.376 12.288 3.84 15.36-12.544 24.064-8.96 4.608-14.848 5.376-41.728 5.632h-31.488v65.28h-29.184c-17.152 0-29.952 1.024-30.976 2.56s1.536 2.304 6.912 2.048c6.144-0.512 8.192 0.256 7.68 2.816-0.512 2.304 0.768 2.816 3.84 1.792 2.304-1.024 3.584-1.024 2.56 0s1.28 5.632 4.864 10.496c3.584 4.608 5.376 8.448 4.352 8.448-3.328 0.256 7.936 6.144 11.776 6.4 1.792 0 5.12 2.56 7.424 5.888 3.328 5.12 3.328 5.632-0.512 4.096-2.816-1.024-4.096-0.256-4.096 2.56s2.304 4.096 6.656 4.096c3.584 0 5.888-1.024 4.864-2.56-0.768-1.28-0.512-2.56 0.768-2.56s2.304 3.328 2.048 7.424c-0.256 5.376-1.024 6.912-3.328 5.12-3.328-3.072-7.168 1.28-4.608 5.376 2.048 3.584-18.432 12.8-28.416 12.8-6.656 0-8.448 1.28-9.216 6.4-0.768 3.584-0.256 7.168 0.768 7.936 1.28 0.768 2.304 2.56 2.304 3.84 0 1.536-1.024 2.048-2.304 1.28-1.024-0.768-5.888 1.536-10.496 4.864-9.472 6.912-14.080 7.936-16.896 3.584-1.024-1.792 0.256-2.56 3.072-1.792 5.376 1.024 17.92-10.752 19.712-18.944 0.768-3.328 0.256-8.192-0.768-11.008-2.048-4.608-2.304-4.608-2.304-0.512-0.256 2.816-1.536 3.84-3.328 2.816-1.536-1.024-2.048-0.768-1.28 0.768 0.768 1.28-6.656 4.352-17.408 6.912-10.496 2.56-19.2 5.888-19.456 7.424-0.256 1.792-1.792-2.048-3.84-8.192-1.792-6.144-2.816-14.080-1.792-17.664 1.28-4.864 0.512-5.888-3.328-5.12-3.328 0.512-4.608 3.328-5.12 11.008-0.512 9.472-5.632 26.624-5.888 19.968-0.256-1.536-8.96-4.864-19.456-7.424-10.752-2.56-18.176-5.632-17.408-6.912 0.768-1.536 0.256-1.792-1.28-0.768-2.048 1.024-3.072 0-3.328-2.816 0-3.84-0.512-3.584-2.304 1.024-1.28 3.072-1.28 8.704 0 12.8 1.024 3.84 2.304 6.144 2.304 4.864 0.256-1.536 2.816 1.024 6.144 5.12 3.584 4.864 7.424 7.168 10.496 6.656 2.816-0.512 4.096 0 3.072 1.792-2.56 3.84-7.168 3.584-13.824-1.28zM614.4 441.6v-55.040h-65.28l-6.4 13.568c-5.12 10.496-8.704 14.336-17.152 18.432l-10.752 5.12-0.256 36.608v36.352h99.84v-55.040zM442.88 326.4c0-54.528 0-55.296-5.12-52.48-4.864 2.56-5.12 5.376-5.12 55.040 0 50.688 0.256 52.48 5.12 52.48s5.12-1.792 5.12-55.040zM465.92 325.12c0-54.528-0.256-56.32-5.12-56.32s-5.12 1.792-5.12 56.32c0 54.528 0.256 56.32 5.12 56.32s5.12-1.792 5.12-56.32zM603.648 371.456c0.256 0-0.512-2.816-2.304-5.632-2.048-4.352-2.048-6.912 0.512-12.032 2.816-5.12 2.816-6.656 0.512-7.424-4.096-1.536-4.352-9.984-0.768-12.288 2.048-1.28 1.792-2.816-0.256-5.376-2.304-2.816-2.304-4.352 0.256-7.424s2.304-5.12-1.28-10.496c-2.304-3.584-3.584-8.192-2.816-10.24 1.024-2.304-1.024-4.864-4.864-6.656-3.584-1.536-6.4-4.352-6.4-6.4 0-1.792-0.768-3.584-1.792-3.584-1.28-0.256-4.864-1.024-8.448-1.536-8.704-1.536-22.016-1.024-33.536 1.536-1.024 0-2.304 2.56-3.072 5.376s-3.072 5.12-5.376 5.12c-2.816 0-4.096 2.304-4.096 7.68 0 4.352-1.024 7.68-2.304 7.68s-2.048 8.704-1.792 19.2c0.256 13.312 1.28 19.2 3.584 19.2 1.536 0 3.072 1.28 3.072 3.072 0 1.536 0.768 2.048 1.792 1.28 0.768-1.024 0-4.608-1.792-8.192-4.352-8.448-2.048-10.24 12.544-10.24 10.496 0 12.032 0.512 9.728 4.096-1.28 2.048-4.864 5.12-7.936 6.4-2.816 1.28-5.12 3.584-4.864 4.864 0.256 1.536-0.768 4.096-2.304 5.888-3.328 3.84-1.792 3.84 6.656 0.512 3.84-1.28 6.656-4.352 6.656-7.168 0-4.864 4.608-10.752 8.192-10.752 3.072 0 2.304 8.96-1.024 12.288-2.56 2.56-2.56 4.352-0.256 7.936 3.84 6.4-2.56 13.312-7.424 8.448-3.84-3.84-9.728-4.096-9.728-0.512 0 1.536 2.048 2.56 4.608 2.56 3.072 0 3.328 0.768 1.28 2.048-2.56 1.536 51.712 2.304 55.040 0.768zM569.088 487.936c1.024-2.304-0.256-5.12-2.816-6.4-4.608-2.816-4.608-2.56 7.168-3.84 4.864-0.256 5.632-13.824 1.024-20.48-3.584-5.376-11.264-7.936-11.264-3.84 0 1.024-1.792 1.536-4.096 0.512-3.328-1.28-2.816 0.768 1.792 9.216 5.376 9.216 5.632 11.008 2.304 13.056-2.56 1.536-4.096 1.536-4.608-0.256-0.768-1.536-2.304-1.28-4.608 0.512-2.048 1.792-4.608 2.304-5.376 1.28-1.024-1.024 1.536-4.608 5.632-7.936l7.68-6.144-6.912-0.256c-4.864 0-7.168-1.28-7.168-4.096 0-2.304 1.28-3.072 3.072-2.048 1.792 1.28 2.048 0.768 1.024-1.28-1.28-1.792-3.328-2.56-5.12-2.048-1.536 0.768-3.072-0.768-3.072-3.328s1.024-4.096 2.048-3.584c1.28 0.768 5.376 2.048 9.216 2.56 8.96 1.792 4.608-2.56-6.912-6.4-8.704-2.816-14.336-1.792-11.776 2.56 1.024 1.28 0 2.304-2.048 2.304-4.608 0-4.352-7.68 0.256-12.544 2.816-2.816 3.84-2.816 6.912 1.28 2.048 2.816 3.84 3.84 3.84 2.816s2.304-0.768 5.376 0.768c4.352 2.304 6.4 2.048 10.24-1.536 5.12-4.608 5.12-4.608 0-6.656-3.072-1.024-5.376-4.096-5.376-6.912 0-3.84-1.28-4.608-5.632-3.584-3.328 0.768-5.12 0.512-4.096-0.512 1.024-1.28 0.768-3.584-0.768-5.632-2.304-2.56-2.048-3.328 1.28-3.328 2.304 0 4.096-2.048 4.096-4.352 0-3.328 0.768-3.584 3.072-1.28 1.792 1.792 5.12 3.072 7.424 3.072 2.56 0 5.12 0.768 5.632 2.048 0.768 1.024-2.304 1.792-6.4 1.792-4.864 0-8.448 1.536-9.216 3.84-1.024 3.328-0.768 3.328 2.56 0.512 5.12-4.096 8.192-0.256 5.888 7.168-1.28 4.096-0.512 5.12 4.864 5.12 3.584 0 6.656-1.024 6.656-2.56 0-1.28-1.536-2.56-3.072-2.56-2.048 0-2.304-0.768-0.768-2.048 1.536-1.024 4.096-4.608 5.888-7.936 3.072-5.12 3.072-6.4 0-8.192-2.56-1.792-2.56-2.304 0-2.304 1.536 0 3.072-1.536 3.072-3.584 0-1.792 2.304-4.096 5.12-4.864 3.84-1.024 5.12 0 5.12 3.84 0 2.56 1.024 7.168 2.56 9.728 1.792 3.328 1.28 5.376-2.048 7.936-3.84 3.072-3.84 3.072-1.28-0.256 2.304-3.072 2.048-5.376-0.256-9.984-2.304-3.84-4.096-5.12-5.12-3.072-1.024 1.536-0.512 2.816 0.768 2.816 5.12 0 2.816 5.632-2.56 6.912-4.096 1.28-5.12 3.072-4.352 8.96 1.024 5.888-0.512 8.448-7.68 14.080-7.424 5.632-8.192 6.912-4.608 8.96 2.304 1.28 5.12 1.792 6.4 1.024s4.864 1.024 8.192 3.84c4.608 4.096 5.888 7.168 5.12 15.104-0.512 8.96 0 9.984 3.84 8.448 4.096-1.536 4.096-1.024-0.512 5.12-5.888 7.936-17.92 14.336-15.616 8.448zM590.592 358.912c-2.56-2.56-4.352-5.888-4.352-7.424 0-3.328-16.384-16.128-20.48-16.128-1.536 0-5.632-1.792-8.96-4.096-4.096-2.816-9.216-3.584-13.824-2.816-8.192 1.792-15.872-3.84-10.24-7.168 1.536-1.28 2.304-4.864 1.28-9.472-1.792-9.472 3.328-8.704 8.192 1.28 1.792 3.84 5.12 6.912 6.912 6.912 2.048 0 5.12 2.048 6.656 4.864 2.048 3.072 4.864 4.096 8.448 3.328 6.656-1.792 22.784-13.568 20.736-15.36-1.536-1.536 3.584-8.192 6.656-8.192 1.024 0 2.048 3.072 2.048 7.168-0.256 3.84 0.256 9.216 0.768 12.032 0.768 4.352-0.512 5.12-8.96 4.352-5.12-0.512-11.52 0.256-13.824 1.792-4.096 2.048-3.84 2.56 1.792 3.84 3.584 1.024 9.984 1.28 14.080 1.024l7.68-0.768 0.256 14.848c0 7.936 0 14.592-0.256 14.592s-2.304-2.048-4.608-4.608zM357.376 525.824c-0.768-2.048-3.072-3.584-5.376-3.584-4.608 0-4.864-2.816-0.512-7.68 1.536-2.048 0.512-1.536-2.816 1.28-5.376 4.352-6.144 4.352-9.984 0.768-3.584-3.84-3.584-4.864 1.792-11.52l5.632-7.168-5.376-0.768c-4.096-0.768-5.376-2.56-5.12-7.68 0.512-6.144 0.512-6.144 1.536-1.024 1.024 5.376 2.304 5.632 22.528 5.632s21.504-0.256 22.528-5.632c1.024-5.12 1.024-5.12 1.536 1.024 0.256 5.12-1.024 6.912-5.12 7.68l-5.376 0.768 5.12 6.4c5.888 7.424 3.584 15.36-4.608 15.36-2.816 0-7.424 2.304-9.984 4.864-4.096 4.096-5.12 4.352-6.4 1.28zM663.808 521.984c1.28-5.12 0.768-5.376-7.424-4.096-5.12 1.024-8.192 0.512-7.424-1.024 1.024-1.28-0.256-2.304-2.304-2.304-5.12 0-5.376-6.144-0.256-10.24s4.864-6.912-0.512-8.448c-2.56-0.768 5.376-1.28 17.92-1.536 19.456-0.256 22.272-0.768 22.272-4.608 0-4.096-2.304-4.608-22.272-3.84-19.712 0.768-21.76 0.512-18.944-3.072 1.792-2.048 2.56-5.12 1.792-6.4-2.304-3.84 1.024-4.864 16.384-5.376 22.016-1.024 23.808 0.768 2.56 2.56l-19.2 1.536 17.664 0.512c18.944 0.512 24.32 3.84 24.576 15.104 0 3.84-1.792 5.888-5.632 6.4l-5.888 0.768 5.888 5.12c6.4 5.632 7.424 11.52 1.792 11.52-2.048 0-3.84 1.024-3.84 2.304 0 1.024-2.816 1.536-6.4 0.768-5.12-0.768-6.4 0-6.4 4.352 0 2.816-1.28 5.376-2.816 5.376-1.792 0-2.304-2.304-1.536-5.376zM642.304 401.408c-5.376-1.792-7.168-4.352-8.192-11.776-0.768-6.4 0.256-11.008 2.816-14.080 3.84-4.352 30.976-18.432 47.36-24.576 6.144-2.304 6.656-3.584 4.352-7.68-2.56-4.864-1.024-13.056 2.304-13.056 3.328 0.256 9.728 12.032 11.52 21.248l1.792 9.728-26.88 12.288c-25.856 12.288-26.88 13.056-27.648 21.504-0.768 8.192-1.28 8.448-7.424 6.4zM376.32 394.496c0-6.656-1.792-8.192-19.712-16.64-11.008-5.12-22.784-10.752-26.368-12.544-8.96-4.608-9.728-16.128-1.536-26.88 6.656-9.216 10.24-7.68 8.704 3.84-0.768 6.4 0.768 7.68 14.848 13.568 8.704 3.584 20.992 9.984 27.648 14.080 9.472 5.888 11.776 8.704 11.776 14.848 0 9.984-4.352 17.152-10.24 17.152-3.84 0-5.12-1.792-5.12-7.424zM341.504 307.456c-0.512-0.512-1.024-2.304-1.024-3.84 0-1.792 5.888-2.56 16.896-2.048 9.984 0.512 18.176-0.256 19.712-1.792 2.048-2.048-3.328-2.816-19.456-2.816-22.016 0-22.272 0-22.272-6.4 0-4.096-1.536-6.4-3.84-6.4-2.048 0-3.84-1.536-3.84-3.584 0-2.816 2.048-3.072 8.448-1.792 4.352 1.024 11.52 1.024 15.872 0 4.096-1.28 11.008-1.28 15.36-0.256 4.096 1.28 11.52 1.28 16.128 0.256 6.144-1.28 8.192-0.768 8.192 1.792 0 2.048-1.792 3.584-3.84 3.584s-3.84 2.048-3.84 4.864c0 2.56-1.792 8.192-3.84 12.032-3.584 6.912-4.608 7.424-20.736 7.424-9.216 0-17.152-0.512-17.92-1.024zM0 64v-128h1536v256h-1536v-128z" />
<glyph unicode="&#xe902;" glyph-name="industria" d="M256 950.857c20 0 36.571-16.571 36.571-36.571v-509.143l306.286 245.143c6.286 5.143 14.857 8 22.857 8 20 0 36.571-16.571 36.571-36.571v-216.571l306.286 245.143c6.286 5.143 14.857 8 22.857 8 20 0 36.571-16.571 36.571-36.571v-658.286c0-20-16.571-36.571-36.571-36.571h-950.857c-20 0-36.571 16.571-36.571 36.571v950.857c0 20 16.571 36.571 36.571 36.571h219.429z" />
<glyph unicode="&#xe903;" glyph-name="menu" d="M560.762 960h-97.524c-40.394 0-73.142-32.748-73.142-73.142v-97.524c0-40.394 32.748-73.142 73.142-73.142h97.524c40.394 0 73.142 32.748 73.142 73.142v97.524c0 40.394-32.748 73.142-73.142 73.142zM560.762 569.904h-97.524c-40.394 0-73.142-32.748-73.142-73.142v-97.524c0-40.394 32.748-73.142 73.142-73.142h97.524c40.394 0 73.142 32.748 73.142 73.142v97.524c0 40.394-32.748 73.142-73.142 73.142zM560.762 179.81h-97.524c-40.394 0-73.142-32.748-73.142-73.142v-97.524c0-40.394 32.748-73.142 73.142-73.142h97.524c40.394 0 73.142 32.748 73.142 73.142v97.524c0 40.392-32.748 73.142-73.142 73.142z" />
<glyph unicode="&#xe904;" glyph-name="domotica" d="M1024 352l-192 192v288h-128v-160l-192 192-512-512v-32h128v-320h320v192h128v-192h320v320h128z" />
<glyph unicode="&#xe905;" glyph-name="home" d="M1024 369.556l-512 397.426-512-397.428v162.038l512 397.426 512-397.428zM896 384v-384h-256v256h-256v-256h-256v384l384 288z" />
<glyph unicode="&#xe906;" glyph-name="eth" d="M758 704.667l232-278-232-278-66 54 186 224-186 224zM470 384.667v84h84v-84h-84zM726 468.667v-84h-86v84h86zM298 384.667v84h86v-84h-86zM332 650.667l-186-224 186-224-66-54-232 278 232 278z" />
<glyph unicode="&#xe907;" glyph-name="cap" d="M512 810.667l470-256v-342h-86v296l-384-210-470 256zM214 376.667l298-164 298 164v-172l-298-162-298 162v172z" />
<glyph unicode="&#xe90f;" glyph-name="camera" d="M304 352c0-114.876 93.124-208 208-208s208 93.124 208 208-93.124 208-208 208-208-93.124-208-208zM960 704h-224c-16 64-32 128-96 128h-256c-64 0-80-64-96-128h-224c-35.2 0-64-28.8-64-64v-576c0-35.2 28.8-64 64-64h896c35.2 0 64 28.8 64 64v576c0 35.2-28.8 64-64 64zM512 68c-156.85 0-284 127.148-284 284 0 156.85 127.15 284 284 284 156.852 0 284-127.15 284-284 0-156.852-127.146-284-284-284zM960 512h-128v64h128v-64z" />
<glyph unicode="&#xe926;" glyph-name="service" d="M917.806 730.924c-22.212 30.292-53.174 65.7-87.178 99.704s-69.412 64.964-99.704 87.178c-51.574 37.82-76.592 42.194-90.924 42.194h-496c-44.112 0-80-35.888-80-80v-864c0-44.112 35.888-80 80-80h736c44.112 0 80 35.888 80 80v624c0 14.332-4.372 39.35-42.194 90.924zM785.374 785.374c30.7-30.7 54.8-58.398 72.58-81.374h-153.954v153.946c22.984-17.78 50.678-41.878 81.374-72.572zM896 16c0-8.672-7.328-16-16-16h-736c-8.672 0-16 7.328-16 16v864c0 8.672 7.328 16 16 16 0 0 495.956 0.002 496 0v-224c0-17.672 14.326-32 32-32h224v-624zM736 128h-448c-17.672 0-32 14.326-32 32s14.328 32 32 32h448c17.674 0 32-14.326 32-32s-14.326-32-32-32zM736 256h-448c-17.672 0-32 14.326-32 32s14.328 32 32 32h448c17.674 0 32-14.326 32-32s-14.326-32-32-32zM736 384h-448c-17.672 0-32 14.326-32 32s14.328 32 32 32h448c17.674 0 32-14.326 32-32s-14.326-32-32-32z" />
<glyph unicode="&#xe930;" glyph-name="proyect" d="M832 0l192 512h-832l-192-512zM128 576l-128-576v832h288l128-128h416v-128z" />
<glyph unicode="&#xe933;" glyph-name="download" d="M576 704l-128 128h-448v-832h1024v704h-448zM512 96l-224 224h160v256h128v-256h160l-224-224z" />
<glyph unicode="&#xe942;" glyph-name="phone" d="M704 320c-64-64-64-128-128-128s-128 64-192 128-128 128-128 192 64 64 128 128-128 256-192 256-192-192-192-192c0-128 131.5-387.5 256-512s384-256 512-256c0 0 192 128 192 192s-192 256-256 192z" />
<glyph unicode="&#xe945;" glyph-name="contact" d="M928 832h-832c-52.8 0-96-43.2-96-96v-640c0-52.8 43.2-96 96-96h832c52.8 0 96 43.2 96 96v640c0 52.8-43.2 96-96 96zM398.74 409.628l-270.74-210.892v501.642l270.74-290.75zM176.38 704h671.24l-335.62-252-335.62 252zM409.288 398.302l102.712-110.302 102.71 110.302 210.554-270.302h-626.528l210.552 270.302zM625.26 409.628l270.74 290.75v-501.642l-270.74 210.892z" />
<glyph unicode="&#xe947;" glyph-name="location" d="M512 960c-176.732 0-320-143.268-320-320 0-320 320-704 320-704s320 384 320 704c0 176.732-143.27 320-320 320zM512 448c-106.040 0-192 85.96-192 192s85.96 192 192 192 192-85.96 192-192-85.96-192-192-192z" />
<glyph unicode="&#xe957;" glyph-name="laptop" d="M896 256v512c0 35.2-28.8 64-64 64h-640c-35.2 0-64-28.8-64-64v-512h-128v-192h1024v192h-128zM640 128h-256v64h256v-64zM832 256h-640v511.886c0.034 0.040 0.076 0.082 0.114 0.114h639.77c0.040-0.034 0.082-0.076 0.116-0.116v-511.884z" />
<glyph unicode="&#xe98f;" glyph-name="seguridad" d="M592 512h-16v192c0 105.87-86.13 192-192 192h-128c-105.87 0-192-86.13-192-192v-192h-16c-26.4 0-48-21.6-48-48v-480c0-26.4 21.6-48 48-48h544c26.4 0 48 21.6 48 48v480c0 26.4-21.6 48-48 48zM192 704c0 35.29 28.71 64 64 64h128c35.29 0 64-28.71 64-64v-192h-256v192z" />
<glyph unicode="&#xe994;" glyph-name="cog" d="M933.79 349.75c-53.726 93.054-21.416 212.304 72.152 266.488l-100.626 174.292c-28.75-16.854-62.176-26.518-97.846-26.518-107.536 0-194.708 87.746-194.708 195.99h-201.258c0.266-33.41-8.074-67.282-25.958-98.252-53.724-93.056-173.156-124.702-266.862-70.758l-100.624-174.292c28.97-16.472 54.050-40.588 71.886-71.478 53.638-92.908 21.512-211.92-71.708-266.224l100.626-174.292c28.65 16.696 61.916 26.254 97.4 26.254 107.196 0 194.144-87.192 194.7-194.958h201.254c-0.086 33.074 8.272 66.57 25.966 97.218 53.636 92.906 172.776 124.594 266.414 71.012l100.626 174.29c-28.78 16.466-53.692 40.498-71.434 71.228zM512 240.668c-114.508 0-207.336 92.824-207.336 207.334 0 114.508 92.826 207.334 207.336 207.334 114.508 0 207.332-92.826 207.332-207.334-0.002-114.51-92.824-207.334-207.332-207.334z" />
<glyph unicode="&#xe995;" glyph-name="cogs" d="M363.722 237.948l41.298 57.816-45.254 45.256-57.818-41.296c-10.722 5.994-22.204 10.774-34.266 14.192l-11.682 70.084h-64l-11.68-70.086c-12.062-3.418-23.544-8.198-34.266-14.192l-57.818 41.298-45.256-45.256 41.298-57.816c-5.994-10.72-10.774-22.206-14.192-34.266l-70.086-11.682v-64l70.086-11.682c3.418-12.060 8.198-23.544 14.192-34.266l-41.298-57.816 45.254-45.256 57.818 41.296c10.722-5.994 22.204-10.774 34.266-14.192l11.682-70.084h64l11.68 70.086c12.062 3.418 23.544 8.198 34.266 14.192l57.818-41.296 45.254 45.256-41.298 57.816c5.994 10.72 10.774 22.206 14.192 34.266l70.088 11.68v64l-70.086 11.682c-3.418 12.060-8.198 23.544-14.192 34.266zM224 96c-35.348 0-64 28.654-64 64s28.652 64 64 64 64-28.654 64-64-28.652-64-64-64zM1024 576v64l-67.382 12.25c-1.242 8.046-2.832 15.978-4.724 23.79l57.558 37.1-24.492 59.128-66.944-14.468c-4.214 6.91-8.726 13.62-13.492 20.13l39.006 56.342-45.256 45.254-56.342-39.006c-6.512 4.766-13.22 9.276-20.13 13.494l14.468 66.944-59.128 24.494-37.1-57.558c-7.812 1.892-15.744 3.482-23.79 4.724l-12.252 67.382h-64l-12.252-67.382c-8.046-1.242-15.976-2.832-23.79-4.724l-37.098 57.558-59.128-24.492 14.468-66.944c-6.91-4.216-13.62-8.728-20.13-13.494l-56.342 39.006-45.254-45.254 39.006-56.342c-4.766-6.51-9.278-13.22-13.494-20.13l-66.944 14.468-24.492-59.128 57.558-37.1c-1.892-7.812-3.482-15.742-4.724-23.79l-67.384-12.252v-64l67.382-12.25c1.242-8.046 2.832-15.978 4.724-23.79l-57.558-37.1 24.492-59.128 66.944 14.468c4.216-6.91 8.728-13.618 13.494-20.13l-39.006-56.342 45.254-45.256 56.342 39.006c6.51-4.766 13.22-9.276 20.13-13.492l-14.468-66.944 59.128-24.492 37.102 57.558c7.81-1.892 15.742-3.482 23.788-4.724l12.252-67.384h64l12.252 67.382c8.044 1.242 15.976 2.832 23.79 4.724l37.1-57.558 59.128 24.492-14.468 66.944c6.91 4.216 13.62 8.726 20.13 13.492l56.342-39.006 45.256 45.256-39.006 56.342c4.766 6.512 9.276 13.22 13.492 20.13l66.944-14.468 24.492 59.13-57.558 37.1c1.892 7.812 3.482 15.742 4.724 23.79l67.382 12.25zM672 468.8c-76.878 0-139.2 62.322-139.2 139.2s62.32 139.2 139.2 139.2 139.2-62.322 139.2-139.2c0-76.878-62.32-139.2-139.2-139.2z" />
<glyph unicode="&#xe9ae;" glyph-name="business" d="M960 704h-256v64c0 35.2-28.8 64-64 64h-256c-35.204 0-64-28.8-64-64v-64h-256c-35.2 0-64-28.8-64-64v-576c0-35.202 28.796-64 64-64h896c35.2 0 64 28.798 64 64v576c0 35.2-28.8 64-64 64zM384 767.884c0.034 0.040 0.074 0.082 0.114 0.116h255.772c0.042-0.034 0.082-0.076 0.118-0.116v-63.884h-256.004v63.884zM960 448h-128v-96c0-17.602-14.4-32-32-32h-64c-17.604 0-32 14.398-32 32v96h-384v-96c0-17.602-14.4-32-32-32h-64c-17.602 0-32 14.398-32 32v96h-128v64h896v-64z" />
<glyph unicode="&#xe9b5;" glyph-name="elec" d="M384 960l-384-512h384l-256-512 896 640h-512l384 384z" />
<glyph unicode="&#xe9c9;" glyph-name="web" d="M480 896c-265.096 0-480-214.904-480-480 0-265.098 214.904-480 480-480 265.098 0 480 214.902 480 480 0 265.096-214.902 480-480 480zM751.59 256c8.58 40.454 13.996 83.392 15.758 128h127.446c-3.336-44.196-13.624-87.114-30.68-128h-112.524zM208.41 576c-8.58-40.454-13.996-83.392-15.758-128h-127.444c3.336 44.194 13.622 87.114 30.678 128h112.524zM686.036 576c9.614-40.962 15.398-83.854 17.28-128h-191.316v128h174.036zM512 640v187.338c14.59-4.246 29.044-11.37 43.228-21.37 26.582-18.74 52.012-47.608 73.54-83.486 14.882-24.802 27.752-52.416 38.496-82.484h-155.264zM331.232 722.484c21.528 35.878 46.956 64.748 73.54 83.486 14.182 10 28.638 17.124 43.228 21.37v-187.34h-155.264c10.746 30.066 23.616 57.68 38.496 82.484zM448 576v-128h-191.314c1.88 44.146 7.666 87.038 17.278 128h174.036zM95.888 256c-17.056 40.886-27.342 83.804-30.678 128h127.444c1.762-44.608 7.178-87.546 15.758-128h-112.524zM256.686 384h191.314v-128h-174.036c-9.612 40.96-15.398 83.854-17.278 128zM448 192v-187.34c-14.588 4.246-29.044 11.372-43.228 21.37-26.584 18.74-52.014 47.61-73.54 83.486-14.882 24.804-27.75 52.418-38.498 82.484h155.266zM628.768 109.516c-21.528-35.876-46.958-64.746-73.54-83.486-14.184-9.998-28.638-17.124-43.228-21.37v187.34h155.266c-10.746-30.066-23.616-57.68-38.498-82.484zM512 256v128h191.314c-1.88-44.146-7.666-87.040-17.28-128h-174.034zM767.348 448c-1.762 44.608-7.178 87.546-15.758 128h112.524c17.056-40.886 27.344-83.806 30.68-128h-127.446zM830.658 640h-95.9c-18.638 58.762-44.376 110.294-75.316 151.428 42.536-20.34 81.058-47.616 114.714-81.272 21.48-21.478 40.362-44.938 56.502-70.156zM185.844 710.156c33.658 33.658 72.18 60.932 114.714 81.272-30.942-41.134-56.676-92.666-75.316-151.428h-95.898c16.138 25.218 35.022 48.678 56.5 70.156zM129.344 192h95.898c18.64-58.762 44.376-110.294 75.318-151.43-42.536 20.34-81.058 47.616-114.714 81.274-21.48 21.478-40.364 44.938-56.502 70.156zM774.156 121.844c-33.656-33.658-72.18-60.934-114.714-81.274 30.942 41.134 56.678 92.668 75.316 151.43h95.9c-16.14-25.218-35.022-48.678-56.502-70.156z" />
<glyph unicode="&#xea85;" glyph-name="mail" d="M853.342 960h-682.656c-93.874 0-170.686-76.81-170.686-170.69v-682.622c0-93.938 76.812-170.688 170.686-170.688h682.656c93.876 0 170.658 76.75 170.658 170.69v682.62c0 93.88-76.782 170.69-170.658 170.69zM182.628 73.374l-77.256 77.254 256 256 29.256-29.254-208-304zM153.372 761.372l29.256 29.256 329.372-265.374 329.374 265.374 29.254-29.256-358.628-422.626-358.628 422.626zM841.374 73.374l-208 304 29.254 29.254 256-256-77.254-77.254z" />
<glyph unicode="&#xea93;" glyph-name="whatsapp" d="M873 811.2c-95.8 96-223.2 148.8-359 148.8-279.6 0-507.2-227.6-507.2-507.4 0-89.4 23.4-176.8 67.8-253.6l-72-263 269 70.6c74.2-40.4 157.6-61.8 242.4-61.8h0.2c0 0 0 0 0 0 279.6 0 507.4 227.6 507.4 507.4 0 135.6-52.8 263-148.6 359zM514.2 30.4v0c-75.8 0-150 20.4-214.8 58.8l-15.4 9.2-159.6-41.8 42.6 155.6-10 16c-42.4 67-64.6 144.6-64.6 224.4 0 232.6 189.2 421.8 422 421.8 112.6 0 218.6-44 298.2-123.6 79.6-79.8 123.4-185.6 123.4-298.4-0.2-232.8-189.4-422-421.8-422zM745.4 346.4c-12.6 6.4-75 37-86.6 41.2s-20 6.4-28.6-6.4c-8.4-12.6-32.8-41.2-40.2-49.8-7.4-8.4-14.8-9.6-27.4-3.2s-53.6 19.8-102 63c-37.6 33.6-63.2 75.2-70.6 87.8s-0.8 19.6 5.6 25.8c5.8 5.6 12.6 14.8 19 22.2s8.4 12.6 12.6 21.2c4.2 8.4 2.2 15.8-1 22.2s-28.6 68.8-39 94.2c-10.2 24.8-20.8 21.4-28.6 21.8-7.4 0.4-15.8 0.4-24.2 0.4s-22.2-3.2-33.8-15.8c-11.6-12.6-44.4-43.4-44.4-105.8s45.4-122.6 51.8-131.2c6.4-8.4 89.4-136.6 216.6-191.4 30.2-13 53.8-20.8 72.2-26.8 30.4-9.6 58-8.2 79.8-5 24.4 3.6 75 30.6 85.6 60.2s10.6 55 7.4 60.2c-3 5.6-11.4 8.8-24.2 15.2z" />
<glyph unicode="&#xeac5;" glyph-name="skype" d="M425.6 922.6c-1.6 1-3.4 1.8-5 2.6-1.8-0.4-3.4-0.6-5.2-1l10.2-1.6zM36.8 539c-0.4-1.8-0.6-3.6-0.8-5.2 1-1.6 1.6-3.2 2.6-4.8l-1.8 10zM986.8 357.4c0.4 1.8 0.6 3.6 1 5.4-1 1.6-1.6 3.2-2.6 4.8l1.6-10.2zM592-23c1.6-1 3.4-1.8 5-2.6 1.8 0.4 3.6 0.6 5.4 0.8l-10.4 1.8zM987.8 362.8c-0.4-1.8-0.6-3.6-1-5.4l-1.8 10.4c1-1.8 1.8-3.4 2.8-5 5.2 28.8 8 58.2 8 87.6 0 65.2-12.8 128.6-38 188.2-24.4 57.6-59.2 109.4-103.6 153.8s-96.2 79.2-153.6 103.6c-59.6 25.2-123 38-188.2 38-30.8 0-61.6-2.8-91.6-8.6 0 0-0.2 0-0.2 0 1.6-0.8 3.4-1.6 5-2.6l-10.2 1.6c1.8 0.4 3.4 0.6 5.2 1-41.2 21.8-87.4 33.6-134.2 33.6-76.4 0-148.4-29.8-202.4-83.8s-83.8-126-83.8-202.4c0-48.6 12.6-96.6 36-138.8 0.4 1.8 0.6 3.6 0.8 5.2l1.8-10.2c-1 1.6-1.8 3.2-2.6 4.8-4.8-27.4-7.2-55.4-7.2-83.4 0-65.2 12.8-128.6 38-188.2 24.4-57.6 59.2-109.2 103.6-153.6s96.2-79.2 153.8-103.6c59.6-25.2 123-38 188.2-38 28.4 0 56.8 2.6 84.6 7.6-1.6 1-3.2 1.8-5 2.6l10.4-1.8c-1.8-0.4-3.6-0.6-5.4-0.8 42.8-24.2 91.4-37.2 140.8-37.2 76.4 0 148.4 29.8 202.4 83.8s83.8 126 83.8 202.4c-0.2 48.6-12.8 96.6-36.4 139.2zM514.2 154.2c-171.8 0-248.6 84.4-248.6 147.8 0 32.4 24 55.2 57 55.2 73.6 0 54.4-105.6 191.6-105.6 70.2 0 109 38.2 109 77.2 0 23.4-11.6 49.4-57.8 60.8l-152.8 38.2c-123 30.8-145.4 97.4-145.4 160 0 129.8 122.2 178.6 237 178.6 105.8 0 230.4-58.4 230.4-136.4 0-33.4-29-52.8-62-52.8-62.8 0-51.2 86.8-177.6 86.8-62.8 0-97.4-28.4-97.4-69s49.6-53.6 92.6-63.4l113.2-25.2c123.8-27.6 155.2-100 155.2-168 0-105.4-81-184.2-244.4-184.2z" />
</font>
</defs>
</svg>
